<svg width="24" height="25" viewBox="0 0 24 25" fill="none" xmlns="http://www.w3.org/2000/svg">
<path opacity="0.4" d="M21.0802 8.61373V15.4537C21.0802 16.5737 20.4802 17.6137 19.5102 18.1837L13.5702 21.6137C12.6002 22.1737 11.4002 22.1737 10.4202 21.6137L4.48016 18.1837C3.51016 17.6237 2.91016 16.5837 2.91016 15.4537V8.61373C2.91016 7.49373 3.51016 6.45368 4.48016 5.88368L10.4202 2.45369C11.3902 1.89369 12.5902 1.89369 13.5702 2.45369L19.5102 5.88368C20.4802 6.45368 21.0802 7.48373 21.0802 8.61373Z" stroke="#86909B" stroke-width="1.5" stroke-linecap="round" stroke-linejoin="round"/>
<path d="M11.9999 11.0335C13.2867 11.0335 14.3299 9.99031 14.3299 8.70349C14.3299 7.41667 13.2867 6.37354 11.9999 6.37354C10.7131 6.37354 9.66992 7.41667 9.66992 8.70349C9.66992 9.99031 10.7131 11.0335 11.9999 11.0335Z" stroke="#86909B" stroke-width="1.5" stroke-linecap="round" stroke-linejoin="round"/>
<path d="M16 16.6935C16 14.8935 14.21 13.4336 12 13.4336C9.79 13.4336 8 14.8935 8 16.6935" stroke="#86909B" stroke-width="1.5" stroke-linecap="round" stroke-linejoin="round"/>
</svg>
