<svg width="47" height="33" viewBox="0 0 47 33" fill="none" xmlns="http://www.w3.org/2000/svg">
<rect x="0.5" y="0.5" width="46" height="32" rx="16" fill="white"/>
<path d="M26 24.482C27.573 24.442 28.677 24.315 29.5 23.915V25.5C29.5 25.7653 29.3946 26.0196 29.2071 26.2071C29.0196 26.3947 28.7652 26.5 28.5 26.5H27C26.7348 26.5 26.4804 26.3947 26.2929 26.2071C26.1054 26.0196 26 25.7653 26 25.5V24.482ZM17.5 23.915C18.323 24.315 19.427 24.442 21 24.482V25.5C21 25.7653 20.8946 26.0196 20.7071 26.2071C20.5196 26.3947 20.2652 26.5 20 26.5H18.5C18.2348 26.5 17.9804 26.3947 17.7929 26.2071C17.6054 26.0196 17.5 25.7653 17.5 25.5V23.915Z" fill="#414D5A"/>
<path opacity="0.32" fill-rule="evenodd" clip-rule="evenodd" d="M16.672 7.672C17.843 6.5 19.729 6.5 23.5 6.5C27.271 6.5 29.157 6.5 30.328 7.672C31.392 8.735 31.49 10.386 31.5 13.5V17.5C31.49 20.614 31.392 22.265 30.328 23.328C30.0873 23.5693 29.8073 23.7678 29.5 23.915C28.677 24.315 27.573 24.442 26 24.482C25.273 24.5 24.446 24.5 23.5 24.5C22.554 24.5 21.727 24.5 21 24.482C19.427 24.442 18.323 24.315 17.5 23.915C17.1927 23.7678 16.9127 23.5693 16.672 23.328C15.608 22.265 15.509 20.614 15.5 17.5V13.5C15.51 10.386 15.608 8.735 16.672 7.672Z" fill="#414D5A"/>
<path d="M29.25 20.5C29.25 20.3011 29.171 20.1103 29.0303 19.9697C28.8897 19.829 28.6989 19.75 28.5 19.75H27C26.8011 19.75 26.6103 19.829 26.4697 19.9697C26.329 20.1103 26.25 20.3011 26.25 20.5C26.25 20.6989 26.329 20.8897 26.4697 21.0303C26.6103 21.171 26.8011 21.25 27 21.25H28.5C28.6989 21.25 28.8897 21.171 29.0303 21.0303C29.171 20.8897 29.25 20.6989 29.25 20.5ZM17.75 20.5C17.75 20.3011 17.829 20.1103 17.9697 19.9697C18.1103 19.829 18.3011 19.75 18.5 19.75H20C20.1989 19.75 20.3897 19.829 20.5303 19.9697C20.671 20.1103 20.75 20.3011 20.75 20.5C20.75 20.6989 20.671 20.8897 20.5303 21.0303C20.3897 21.171 20.1989 21.25 20 21.25H18.5C18.3011 21.25 18.1103 21.171 17.9697 21.0303C17.829 20.8897 17.75 20.6989 17.75 20.5ZM17 14C17 15.414 17 16.121 17.44 16.56C17.879 17 18.586 17 20 17H27C28.414 17 29.121 17 29.56 16.56C30 16.121 30 15.414 30 14V11.5C30 10.086 30 9.379 29.56 8.94C29.122 8.5 28.415 8.5 27 8.5H20C18.586 8.5 17.879 8.5 17.44 8.94C17 9.378 17 10.085 17 11.5V14ZM13.9 16.3L15.5 17.5V13.5H14.5C14.2348 13.5 13.9804 13.6054 13.7929 13.7929C13.6054 13.9804 13.5 14.2348 13.5 14.5V15.5C13.5 15.6552 13.5361 15.8084 13.6056 15.9472C13.675 16.0861 13.7758 16.2069 13.9 16.3ZM32.5 13.5H31.499L31.5 17.5L33.1 16.3C33.2242 16.2069 33.325 16.0861 33.3944 15.9472C33.4639 15.8084 33.5 15.6552 33.5 15.5V14.5C33.5 14.2348 33.3946 13.9804 33.2071 13.7929C33.0196 13.6054 32.7652 13.5 32.5 13.5Z" fill="#414D5A"/>
</svg>
