<svg width="24" height="25" viewBox="0 0 24 25" fill="none" xmlns="http://www.w3.org/2000/svg">
<path d="M16.9 22.0337H7.10001C5.40001 22.0337 4 20.6437 4 18.9337V5.1337C4 3.4337 5.39001 2.03369 7.10001 2.03369H16.9C18.6 2.03369 20 3.4237 20 5.1337V18.9337C20 20.6437 18.61 22.0337 16.9 22.0337Z" stroke="#86909B" stroke-width="1.5" stroke-linecap="round" stroke-linejoin="round"/>
<path d="M18.5 13.0337H5.5C4.67 13.0337 4 12.3637 4 11.5337V9.53369C4 8.70369 4.67 8.03369 5.5 8.03369H18.5C19.33 8.03369 20 8.70369 20 9.53369V11.5337C20 12.3637 19.33 13.0337 18.5 13.0337Z" stroke="#86909B" stroke-width="1.5" stroke-linecap="round" stroke-linejoin="round"/>
<path opacity="0.4" d="M9.5 5.03369H14.5" stroke="#86909B" stroke-width="1.5" stroke-linecap="round" stroke-linejoin="round"/>
<path opacity="0.4" d="M8.49451 17.7339H8.50349" stroke="#86909B" stroke-width="2.5" stroke-linecap="round" stroke-linejoin="round"/>
<path opacity="0.4" d="M15.4945 17.7339H15.5035" stroke="#86909B" stroke-width="2.5" stroke-linecap="round" stroke-linejoin="round"/>
</svg>
