<svg width="24" height="25" viewBox="0 0 24 25" fill="none" xmlns="http://www.w3.org/2000/svg">
<path d="M9.16055 10.9037C9.06055 10.8937 8.94055 10.8937 8.83055 10.9037C6.45055 10.8237 4.56055 8.87369 4.56055 6.47369C4.56055 4.02369 6.54055 2.03369 9.00055 2.03369C11.4505 2.03369 13.4405 4.02369 13.4405 6.47369C13.4305 8.87369 11.5405 10.8237 9.16055 10.9037Z" stroke="#86909B" stroke-width="1.5" stroke-linecap="round" stroke-linejoin="round"/>
<path opacity="0.4" d="M16.4093 4.03369C18.3493 4.03369 19.9093 5.60369 19.9093 7.53369C19.9093 9.42369 18.4093 10.9637 16.5393 11.0337C16.4593 11.0237 16.3693 11.0237 16.2793 11.0337" stroke="#86909B" stroke-width="1.5" stroke-linecap="round" stroke-linejoin="round"/>
<path d="M4.1607 14.5937C1.7407 16.2137 1.7407 18.8537 4.1607 20.4637C6.9107 22.3037 11.4207 22.3037 14.1707 20.4637C16.5907 18.8437 16.5907 16.2037 14.1707 14.5937C11.4307 12.7637 6.9207 12.7637 4.1607 14.5937Z" stroke="#86909B" stroke-width="1.5" stroke-linecap="round" stroke-linejoin="round"/>
<path opacity="0.4" d="M18.3398 20.0337C19.0598 19.8837 19.7398 19.5937 20.2998 19.1637C21.8598 17.9937 21.8598 16.0637 20.2998 14.8937C19.7498 14.4737 19.0798 14.1937 18.3698 14.0337" stroke="#86909B" stroke-width="1.5" stroke-linecap="round" stroke-linejoin="round"/>
</svg>
