<svg width="168" height="37" viewBox="0 0 168 37" fill="none" xmlns="http://www.w3.org/2000/svg">
<g clip-path="url(#clip0_12692_3903)">
<path d="M66.7528 24.1224C66.7528 30.6506 61.3716 36.0318 54.7199 36.0318C48.131 35.9711 42.8711 30.6506 42.8711 24.1224V11.7617H52.0013V24.3042C52.0013 25.7544 53.2113 27.0251 54.7221 27.0251C56.3542 27.0251 57.6248 25.7567 57.6248 24.3042V11.7617H66.755V24.1224H66.7528Z" fill="white"/>
<path d="M80.3584 20.7327L85.2547 25.2989C89.4864 29.1849 87.3716 36.0342 80.9623 36.0342H68.8711V27.3351H76.3669C74.8561 26.1004 73.4059 24.6209 71.7716 23.3862C66.7541 19.2533 68.5074 11.7866 75.2175 11.7866H87.4525V20.7327H80.3562H80.3584Z" fill="white"/>
<path d="M113.7 36.0338C108.319 34.7631 104.208 29.6851 104.33 24.0615C104.451 22.5507 103.18 21.28 101.669 21.28C100.159 21.28 98.9485 22.5507 98.9485 24.0009C98.9485 25.4511 100.159 26.7218 101.669 26.7218C102.455 26.7218 103.18 26.4793 103.605 25.8148C103.786 27.3257 104.572 30.8323 108.2 34.0986C106.265 35.3064 104.15 36.0338 101.669 36.0338C95.2623 36.0338 89.5781 30.7133 89.5781 24.0009C89.5781 17.2885 94.9592 11.9097 101.669 11.9097C108.379 11.9097 113.702 17.2908 113.702 24.0009V36.0338H113.7Z" fill="white"/>
<path d="M127.851 9.18853C126.279 9.18853 125.13 10.4569 125.13 11.97V16.1411H127.184V25.4509H125.13V36.0313H115.82V12.0912C115.82 5.38112 121.141 0 127.851 0V9.18853Z" fill="white"/>
<path d="M142.003 36.034C135.381 36.034 129.973 30.6259 129.973 24.0033C129.973 17.3808 135.381 11.9121 142.003 11.9121C147.533 11.9121 152.941 14.5252 153.365 21.0266C153.486 22.7888 153.183 24.6723 151.969 26.1293H142.125V25.0966C145.346 25.1572 144.98 21.269 142.003 21.269C140.544 21.269 139.269 22.4835 139.269 24.0033C139.269 25.5232 140.607 26.7377 142.125 26.7377H153.39V36.034H142.003Z" fill="white"/>
<path d="M168 21.0331C165.612 21.0331 164.572 22.2566 164.572 23.7876V36.0315H155.512V23.7876C155.512 17.2975 160.226 11.9097 168 11.9097V21.0331Z" fill="white"/>
<path d="M10.0384 9.66671C12.7078 9.66671 14.8718 7.50274 14.8718 4.83335C14.8718 2.16397 12.7078 0 10.0384 0C7.36904 0 5.20508 2.16397 5.20508 4.83335C5.20508 7.50274 7.36904 9.66671 10.0384 9.66671Z" fill="#29E5AB"/>
<path d="M30.7201 9.66671C33.3895 9.66671 35.5534 7.50274 35.5534 4.83335C35.5534 2.16397 33.3895 0 30.7201 0C28.0507 0 25.8867 2.16397 25.8867 4.83335C25.8867 7.50274 28.0507 9.66671 30.7201 9.66671Z" fill="white"/>
<path d="M37.8201 14.7195C35.9972 12.9101 33.4874 11.7876 30.7149 11.7876C25.1721 11.7876 20.6777 16.2797 20.6777 21.8247V36.0329H29.4308V21.8247C29.4308 21.1108 29.9987 20.5406 30.7149 20.5406C31.0651 20.5406 31.3861 20.6708 31.633 20.92C31.8665 21.1535 31.9967 21.4745 31.9967 21.8247V36.0329H40.7497V21.8247C40.7497 19.0522 39.6273 16.5446 37.8178 14.7195H37.8201Z" fill="white"/>
<path d="M17.1424 14.7195C15.3195 12.9101 12.8096 11.7876 10.0371 11.7876C4.49212 11.7854 0 16.2797 0 21.8225V36.0307H8.75302V21.8225C8.75302 21.1086 9.32099 20.5384 10.0371 20.5384C10.3873 20.5384 10.7084 20.6686 10.9553 20.9178C11.1888 21.1512 11.319 21.4723 11.319 21.8225V36.0307H20.072V21.8225C20.072 19.05 18.9495 16.5424 17.1401 14.7172L17.1424 14.7195Z" fill="white"/>
</g>
<defs>
<clipPath id="clip0_12692_3903">
<rect width="168" height="36.0335" fill="white"/>
</clipPath>
</defs>
</svg>
