<svg width="25" height="24" viewBox="0 0 25 24" fill="none" xmlns="http://www.w3.org/2000/svg">
<path d="M14.4827 9.747C13.9242 9.19118 13.2616 8.75081 12.5329 8.45103C11.8042 8.15126 11.0236 7.99794 10.2357 7.99985C9.44773 8.00175 8.66786 8.15883 7.94062 8.46213C7.21338 8.76542 6.55299 9.20899 5.99717 9.7675C5.44135 10.326 5.00098 10.9885 4.7012 11.7172C4.40143 12.4459 4.24811 13.2265 4.25002 14.0145C4.25192 14.8024 4.409 15.5823 4.7123 16.3096C5.01559 17.0368 5.45916 17.6972 6.01767 18.253C7.14564 19.3755 8.67333 20.004 10.2647 20.0002C11.856 19.9963 13.3806 19.3605 14.5032 18.2325C15.6257 17.1045 16.2542 15.5768 16.2503 13.9855C16.2465 12.3942 15.6106 10.8695 14.4827 9.747ZM14.4827 9.747L20.2507 4M20.2507 4H16.2507M20.2507 4V8" stroke="#6EC3E4" stroke-width="1.5" stroke-linecap="round" stroke-linejoin="round"/>
</svg>
