<svg width="24" height="25" viewBox="0 0 24 25" fill="none" xmlns="http://www.w3.org/2000/svg">
<g clip-path="url(#clip0_12624_46786)">
<path d="M21 6.19977V13.8898C20.87 14.3298 20.64 14.7298 20.31 15.0598L14.57 20.7997C14.24 21.1297 13.84 21.3697 13.4 21.4897H5.70001C4.22001 21.4897 3 20.2698 3 18.7898V6.18976C3 4.69976 4.22001 3.48975 5.70001 3.48975H18.3C19.78 3.48975 21 4.69976 21 6.18976V6.19977Z" stroke="#29E5AB" stroke-width="0.837209" stroke-linecap="round" stroke-linejoin="round"/>
<path d="M7.25977 9.08008C7.25977 10.0301 8.02976 10.7901 8.96976 10.7901C9.90976 10.7901 10.6797 10.0301 10.6797 9.08008" stroke="#29E5AB" stroke-width="0.837209" stroke-linecap="round" stroke-linejoin="round"/>
<path d="M12.8301 9.08008C12.8301 10.0301 13.5901 10.7901 14.5401 10.7901C15.4901 10.7901 16.2501 10.0301 16.2501 9.08008" stroke="#29E5AB" stroke-width="0.837209" stroke-linecap="round" stroke-linejoin="round"/>
<path d="M20.9989 13.8901C20.8689 14.3301 20.6389 14.7301 20.3089 15.0601L14.5689 20.8001C14.2389 21.1301 13.8389 21.3701 13.3989 21.4901C12.6089 20.5501 12.1289 19.3401 12.1289 18.0201C12.1289 17.9801 12.1289 17.9601 12.1289 17.9201C12.1289 16.7901 12.5089 15.7301 13.1289 14.8801C14.1089 13.5101 15.7089 12.6201 17.5189 12.6201C18.8389 12.6201 20.0589 13.1001 20.9889 13.8901H20.9989Z" stroke="#29E5AB" stroke-width="0.837209" stroke-linecap="round" stroke-linejoin="round"/>
<path d="M13.1311 14.88C12.5111 15.74 12.1411 16.79 12.1311 17.92C11.6611 17.97 11.1911 17.94 10.7411 17.81C9.34109 17.43 8.22111 16.28 7.76111 14.78C7.71111 14.65 7.81111 14.5 7.95111 14.5C9.65111 14.91 11.4011 15.03 13.1211 14.88H13.1311Z" stroke="#29E5AB" stroke-width="0.837209" stroke-linecap="round" stroke-linejoin="round"/>
</g>
<defs>
<clipPath id="clip0_12624_46786">
<rect width="24" height="24" fill="white" transform="translate(0 0.5)"/>
</clipPath>
</defs>
</svg>
