<svg width="16" height="16" viewBox="0 0 16 16" fill="none" xmlns="http://www.w3.org/2000/svg">
<path d="M3.28703 15.1668C3.00703 15.1668 2.74703 15.1002 2.5137 14.9668C2.00036 14.6668 1.70703 14.0602 1.70703 13.3068V3.90683C1.70703 2.2135 3.08703 0.833496 4.78036 0.833496H11.2137C12.907 0.833496 14.287 2.2135 14.287 3.90683V13.3002C14.287 14.0535 13.9937 14.6602 13.4804 14.9602C12.967 15.2602 12.2937 15.2268 11.6337 14.8602L8.38036 13.0535C8.18703 12.9468 7.80703 12.9468 7.6137 13.0535L4.36036 14.8602C4.00036 15.0602 3.6337 15.1668 3.28703 15.1668ZM4.78703 1.8335C3.64703 1.8335 2.7137 2.76683 2.7137 3.90683V13.3002C2.7137 13.6935 2.82703 13.9868 3.02703 14.1002C3.22703 14.2135 3.54036 14.1802 3.88036 13.9868L7.1337 12.1802C7.62703 11.9068 8.3737 11.9068 8.86703 12.1802L12.1204 13.9868C12.4604 14.1802 12.7737 14.2202 12.9737 14.1002C13.1737 13.9802 13.287 13.6868 13.287 13.3002V3.90683C13.287 2.76683 12.3537 1.8335 11.2137 1.8335H4.78703Z" fill="#00C069"/>
<path d="M7.39286 8.83346C7.2662 8.83346 7.13953 8.78679 7.03953 8.68679L6.03953 7.68679C5.8462 7.49346 5.8462 7.17346 6.03953 6.98012C6.23286 6.78679 6.55286 6.78679 6.7462 6.98012L7.39286 7.62679L9.7062 5.31346C9.89953 5.12012 10.2195 5.12012 10.4129 5.31346C10.6062 5.50679 10.6062 5.82679 10.4129 6.02012L7.7462 8.68679C7.6462 8.78679 7.51953 8.83346 7.39286 8.83346Z" fill="#00C069"/>
</svg>
