<svg width="26" height="18" viewBox="0 0 26 18" fill="none" xmlns="http://www.w3.org/2000/svg">
<rect x="0.400391" width="25.2" height="18" rx="6" fill="#249F58"/>
<path fill-rule="evenodd" clip-rule="evenodd" d="M19.601 12.0003V10.8003H6.401L8.801 12.0003H16.001C16.001 12.6627 16.8074 13.2003 17.801 13.2003C18.7946 13.2003 19.601 12.6627 19.601 12.0003ZM10.877 4.6875C10.8626 4.6875 10.841 4.6947 10.8134 4.7115C10.7486 4.7547 10.6214 4.8879 10.6166 5.0415C10.613 5.1291 10.5962 5.1291 10.6526 5.1855C10.6934 5.2431 10.7366 5.2383 10.8182 5.1939C10.8662 5.1579 10.8818 5.1375 10.8986 5.0787C10.9178 4.9827 10.7942 5.1267 10.7786 5.0163C10.751 4.9155 10.8302 4.8723 10.9046 4.7763C10.907 4.7283 10.907 4.6923 10.877 4.6899V4.6875ZM12.0806 4.6935C12.0566 4.6983 12.029 4.7295 11.9894 4.7991C11.9618 4.8735 11.8406 4.9863 11.9294 5.2191C11.999 5.3667 12.029 5.6055 11.9966 5.8731C11.9462 5.9487 11.9366 5.9751 11.8706 6.0507C11.7794 6.1503 11.6786 6.1251 11.6042 6.0867C11.5322 6.0387 11.477 6.0147 11.4446 5.8635C11.4506 5.6235 11.465 5.2251 11.4206 5.1411C11.3558 5.0115 11.2478 5.0571 11.2022 5.0967C10.9826 5.3007 10.8734 5.6403 10.8062 5.9127C10.7462 6.1095 10.6802 6.0519 10.6346 5.9727C10.523 5.8671 10.5146 5.0487 10.3802 5.1843C10.1642 5.8011 10.5038 6.4767 10.7402 6.4107C10.9082 6.4827 11.0162 6.1587 11.0858 5.8047C11.1338 5.7051 11.1698 5.6931 11.1938 5.7447C11.1878 6.2151 11.2298 6.3207 11.3498 6.4623C11.6186 6.6711 11.8418 6.4887 11.8598 6.4719L12.0698 6.2631C12.1178 6.2151 12.1778 6.2103 12.2438 6.2535C12.3086 6.3135 12.3002 6.4131 12.4358 6.4815C12.5534 6.5295 12.7994 6.4935 12.8558 6.3939C12.9338 6.2619 12.9518 6.2163 12.9878 6.1659C13.043 6.0939 13.1378 6.1263 13.1378 6.1491C13.1294 6.1911 13.0742 6.2331 13.1114 6.3051C13.1774 6.3531 13.193 6.3219 13.2314 6.3111C13.3682 6.2463 13.4714 5.9487 13.4714 5.9487C13.4774 5.8383 13.415 5.8467 13.3754 5.8695C13.3214 5.9019 13.319 5.9127 13.2674 5.9451C13.199 5.9547 13.0694 5.9991 13.0058 5.8995C12.9398 5.7795 12.9398 5.6139 12.8894 5.4915C12.8894 5.4843 12.8018 5.3031 12.8822 5.2923C12.9218 5.2995 13.0106 5.3223 13.0238 5.2491C13.067 5.1771 12.9314 4.9731 12.839 4.8723C12.7598 4.7847 12.6494 4.7739 12.5426 4.8627C12.467 4.9323 12.479 5.0091 12.4634 5.0823C12.4454 5.1663 12.449 5.2707 12.5354 5.3823C12.6098 5.5287 12.7454 5.7183 12.6998 5.9847C12.6998 5.9847 12.6218 6.1119 12.4838 6.0951C12.4238 6.0831 12.3302 6.0591 12.2798 5.6871C12.2438 5.4075 12.2894 5.0151 12.1718 4.8315C12.1442 4.7631 12.1214 4.6959 12.083 4.6995L12.0806 4.6935ZM11.699 4.7247C11.663 4.7283 11.6234 4.7703 11.591 4.8507C11.5634 4.9131 11.5286 5.2347 11.5346 5.2347C11.5106 5.3307 11.6342 5.3715 11.6906 5.2491C11.7746 5.0211 11.7746 4.9251 11.7794 4.8315C11.7674 4.7595 11.735 4.7235 11.699 4.7259V4.7247ZM13.1066 4.7487C13.0706 4.7535 13.0406 4.7751 13.0298 4.8303C13.0142 4.9575 13.0226 5.0283 13.0442 5.1351C13.0598 5.2071 13.1642 5.3247 13.2146 5.3943C13.4582 5.7219 13.6946 6.0507 13.9202 6.3903C13.9562 6.6447 13.9802 6.8919 13.9982 7.1391C14.0366 7.6791 14.0462 8.3511 14.0138 8.9211C14.1146 8.9247 14.2778 8.7567 14.3342 8.5131C14.3702 8.1723 14.3222 7.4811 14.3174 7.2795L14.3054 6.9939C14.5694 7.4259 14.8238 7.8819 15.0734 8.3811C15.1658 8.3379 15.1454 7.8231 15.0926 7.7511C14.891 7.3191 14.6126 6.8919 14.525 6.7275C14.4926 6.6675 14.3834 6.5031 14.255 6.3123C14.231 6.0387 14.2046 5.8083 14.1878 5.7387C14.1458 5.4507 14.3054 5.7711 14.2838 5.6043C14.231 5.3163 14.0726 5.1219 13.8854 4.8579C13.8254 4.7739 13.8254 4.7547 13.733 4.8795C13.679 5.0055 13.679 5.1111 13.697 5.2095C13.6706 5.1735 13.6406 5.1327 13.5974 5.0799L13.2914 4.8207C13.2494 4.7907 13.1678 4.7451 13.1066 4.7487ZM17.2778 4.7931C17.2598 4.7907 17.2418 4.7991 17.2178 4.8315C17.1758 4.8675 17.1314 4.9359 17.1338 5.0235C17.1422 5.1735 17.1698 5.3283 17.1794 5.4795L17.1914 5.5395C17.1746 5.5203 17.1602 5.5035 17.1518 5.4963C16.8554 5.1843 17.2874 5.4435 17.0942 5.2047C16.9322 5.0247 16.8842 4.9695 16.7462 4.8615C16.6742 4.8183 16.6334 4.7319 16.6106 4.8783C16.601 5.0067 16.5914 5.1567 16.5986 5.2647C16.5986 5.3247 16.6622 5.4387 16.7162 5.5047C16.913 5.7483 17.1146 6.0063 17.3162 6.2751C17.3594 6.8235 17.3702 7.3263 17.4122 7.8759C17.4074 8.1111 17.3354 8.4231 17.2682 8.4519C17.2682 8.4519 17.1626 8.5119 17.093 8.4459C17.0414 8.4255 16.8386 8.1063 16.8386 8.1063C16.7342 8.0103 16.6646 8.0379 16.5914 8.1063C16.3874 8.3031 16.2938 8.6727 16.1558 8.9271C16.1198 8.9835 16.0202 9.0327 15.9086 8.9223C15.6242 8.5335 15.7886 7.9803 15.755 8.1231C15.503 8.4087 15.6134 8.8815 15.671 8.9835C15.755 9.1515 15.8222 9.2595 15.983 9.3399C16.133 9.4479 16.247 9.3819 16.3118 9.3039C16.4606 9.1503 16.463 8.7555 16.5326 8.6775C16.5806 8.5335 16.7042 8.5575 16.7642 8.6223C16.8242 8.7063 16.8914 8.7603 16.9766 8.8059C17.1158 8.9283 17.2814 8.9499 17.4446 8.8383C17.5562 8.7759 17.6294 8.6943 17.6942 8.5335C17.7662 8.3463 17.7302 7.3623 17.7146 6.8151L18.0266 7.2663C18.0698 7.7463 18.0902 8.2203 18.0746 8.6739C18.065 8.7639 18.3902 8.4051 18.3866 8.2347C18.3866 8.0871 18.389 7.9515 18.3866 7.8267C18.5462 8.0787 18.6986 8.3343 18.8426 8.5947C18.9326 8.5467 18.9026 8.0391 18.8462 7.9707C18.695 7.7163 18.5006 7.4427 18.3506 7.2291C18.3206 6.9615 18.281 6.6459 18.2618 6.5487C18.2342 6.3975 18.2054 6.1707 18.1622 5.9919C18.1502 5.9235 18.1142 5.7003 18.1262 5.6799C18.143 5.6283 18.2102 5.6799 18.2426 5.6223C18.2906 5.5683 18.0722 4.9983 17.9606 4.8375C17.921 4.7655 17.8478 4.7895 17.759 4.9095C17.675 4.9863 17.7062 5.1639 17.7374 5.3331C17.819 5.7651 17.8934 6.2019 17.951 6.6411C17.843 6.4791 17.711 6.2847 17.5814 6.0987L17.5646 6.0147C17.5646 6.0051 17.5478 5.6607 17.5322 5.5791C17.5286 5.5455 17.5202 5.5359 17.5562 5.5407C17.5922 5.5719 17.597 5.5731 17.6198 5.5839C17.6582 5.5887 17.6918 5.5263 17.6678 5.4675L17.3198 4.8267C17.3078 4.8111 17.291 4.7967 17.2718 4.7943L17.2778 4.7931ZM6.5138 4.8051C6.4478 4.8027 6.3782 4.8411 6.4058 4.9191C6.389 4.9611 6.5306 5.1027 6.5558 5.1807C6.5762 5.2371 6.5318 5.4147 6.5798 5.4327C6.6218 5.4507 6.6806 5.3079 6.7022 5.1771C6.7142 5.1051 6.7058 4.8579 6.5378 4.8075C6.5294 4.8051 6.521 4.8051 6.5114 4.8039L6.5138 4.8051ZM18.7778 4.8051C18.7622 4.8075 18.7442 4.8291 18.7178 4.8891C18.6518 4.9971 18.629 5.1891 18.6554 5.3571C18.8114 6.4251 18.9314 7.4595 18.9554 8.4051C18.941 8.4963 18.9362 8.5443 18.8954 8.6571C18.8018 8.7771 18.6986 8.9259 18.6014 8.9979C18.5054 9.0699 18.299 9.1395 18.2318 9.1923C18.0158 9.3147 18.0158 9.4563 18.1886 9.4623C18.4862 9.4263 18.839 9.4023 19.0814 9.0363C19.1462 8.9343 19.223 8.6559 19.2254 8.4843C19.2494 7.4883 19.2134 6.5103 19.0634 5.7891C19.0538 5.7171 19.0226 5.5575 19.0346 5.5371C19.0526 5.4867 19.1498 5.5407 19.1846 5.4843C19.2362 5.4315 18.9326 5.0439 18.827 4.8783C18.8054 4.8375 18.791 4.8027 18.7742 4.8063L18.7778 4.8051ZM15.6542 4.8219C15.6422 4.8243 15.6254 4.8435 15.5918 4.8879C15.5078 5.1591 15.479 5.3799 15.5114 5.5503C15.7274 6.6663 15.9434 7.6803 15.9098 8.7423C16.0106 8.7423 16.1282 8.5107 16.1786 8.2803C16.2062 7.9623 16.1594 7.7691 16.1522 7.5843C16.1438 7.3971 15.941 5.8851 15.9002 5.7447C15.8498 5.4783 16.097 5.7087 16.0706 5.5551C15.9842 5.3583 15.7706 5.0751 15.7058 4.9035C15.6818 4.8579 15.677 4.8159 15.6578 4.8195L15.6542 4.8219ZM8.0534 4.8435C8.0294 4.8483 8.0018 4.8699 7.9934 4.9035C7.9874 4.9275 8.003 4.9671 7.9814 4.9791C7.9694 4.9911 7.9238 4.9827 7.9262 4.9191C7.9262 4.8975 7.9106 4.8759 7.9022 4.8627C7.8926 4.8579 7.8866 4.8567 7.8698 4.8567C7.8494 4.8567 7.8494 4.8627 7.8386 4.8807C7.8338 4.8975 7.8266 4.9143 7.8266 4.9335C7.8242 4.9575 7.8146 4.9635 7.799 4.9671C7.7798 4.9671 7.7834 4.9695 7.769 4.9587C7.757 4.9503 7.7474 4.9467 7.7474 4.9299C7.7474 4.9119 7.7426 4.8819 7.7378 4.8723C7.7294 4.8603 7.7162 4.8555 7.7018 4.8519C7.6226 4.8519 7.6178 4.9455 7.6214 4.9791C7.6154 4.9863 7.613 5.1471 7.721 5.1927C7.865 5.2623 8.1386 5.2323 8.129 4.9983C8.129 4.9779 8.123 4.9083 8.1206 4.8903C8.1062 4.8543 8.0786 4.8423 8.0522 4.8459L8.0534 4.8435ZM10.0046 4.8459C9.9542 4.8483 9.9086 4.8627 9.8726 4.8819C9.7766 4.9743 9.7526 5.1219 9.8294 5.2143C9.9014 5.2503 9.977 5.3223 9.9278 5.3643C9.719 5.5863 9.1754 5.9595 9.1478 6.0279V6.0351H9.1526V6.0375C9.1802 6.0555 9.521 6.0555 9.5582 6.0375H9.5606C9.6782 5.9931 10.2326 5.3595 10.2326 5.3595C10.2038 5.3355 10.1774 5.3163 10.1486 5.2911C10.1174 5.2647 10.121 5.2383 10.1486 5.2119C10.2854 5.1327 10.2422 4.9563 10.1702 4.8759C10.1102 4.8495 10.055 4.8399 10.0046 4.8435V4.8459ZM15.1046 4.8459C15.0902 4.8495 15.0722 4.8699 15.0446 4.9299C14.9786 5.0379 14.9342 5.2239 14.9402 5.3979C15.0818 6.3819 15.125 7.2423 15.2186 8.2263C15.2258 8.3223 15.2114 8.4591 15.149 8.5143C14.9138 8.7591 14.5766 9.0591 14.2094 9.1983C14.1698 9.2427 14.3078 9.4311 14.4854 9.4311C14.783 9.3951 15.0446 9.2295 15.2894 8.7891C15.353 8.6871 15.467 8.4675 15.4694 8.2971C15.4934 7.2987 15.4214 6.5211 15.2702 5.8011C15.2618 5.7291 15.2678 5.6451 15.2798 5.6259C15.299 5.6019 15.3638 5.6259 15.3998 5.5695C15.4502 5.5167 15.263 5.0859 15.1574 4.9215C15.1358 4.8795 15.1238 4.8459 15.1046 4.8471V4.8459ZM7.2038 4.8783C7.163 4.8831 7.1246 4.9143 7.1054 4.9623C7.0994 5.1183 7.0982 5.2743 7.1174 5.4207C7.1894 5.6763 7.2098 5.9007 7.2446 6.1611C7.2566 6.5115 7.043 6.3123 7.0526 6.1395C7.1006 5.9139 7.0886 5.5599 7.0454 5.4699C7.0094 5.3799 6.971 5.3583 6.887 5.3739C6.821 5.3691 6.6494 5.5539 6.6014 5.8659C6.6014 5.8659 6.5606 6.0243 6.5438 6.1659C6.5198 6.3255 6.4142 6.4395 6.3398 6.1443C6.2762 5.9283 6.2378 5.4003 6.131 5.5227C6.0998 5.9355 6.0638 6.6627 6.4142 6.7371C6.839 6.7779 6.6038 6.0195 6.7574 5.8815C6.7874 5.8155 6.8414 5.8143 6.845 5.8995V6.5439C6.8402 6.7527 6.977 6.8151 7.085 6.8583C7.1966 6.8499 7.2698 6.8535 7.313 6.9615L7.367 8.0775C7.367 8.0775 7.6238 8.1495 7.6358 7.4499C7.6478 7.0383 7.5518 6.6939 7.6082 6.6135C7.6106 6.5343 7.7114 6.5295 7.781 6.5691C7.8926 6.6471 7.9418 6.7431 8.1146 6.7047C8.3786 6.6327 8.5346 6.5055 8.5382 6.3039C8.5262 6.1119 8.5022 5.9199 8.41821 5.7279C8.4302 5.6943 8.3702 5.6043 8.3822 5.5695C8.4278 5.6415 8.4998 5.6367 8.5142 5.5695C8.471 5.4219 8.4014 5.2815 8.2886 5.2215C8.1962 5.1375 8.0606 5.1555 8.0102 5.3259C7.9862 5.5227 8.0822 5.7555 8.2262 5.9463C8.255 6.0207 8.2982 6.1443 8.279 6.2559C8.2034 6.2991 8.1278 6.2799 8.063 6.2139C8.063 6.2139 7.8554 6.0579 7.8554 6.0219C7.9118 5.6679 7.8674 5.6259 7.8374 5.5299C7.8158 5.3931 7.751 5.3499 7.6994 5.2563C7.6466 5.1999 7.5758 5.1999 7.5434 5.2563C7.4498 5.4159 7.493 5.7603 7.5602 5.9127C7.6082 6.0543 7.6826 6.1431 7.6478 6.1431C7.619 6.2211 7.559 6.2031 7.5158 6.1107C7.4558 5.9187 7.4414 5.6355 7.4414 5.5071C7.4234 5.3487 7.40301 5.0091 7.29741 4.9227C7.2698 4.8843 7.2374 4.8711 7.205 4.8747L7.2038 4.8783ZM8.6942 4.8783C8.6738 4.8831 8.6498 4.8951 8.6222 4.9023C8.5322 4.9299 8.4482 5.0079 8.4746 5.1591C8.5826 5.8071 8.651 6.3027 8.7578 6.9507C8.7734 7.0275 8.7098 7.1271 8.6282 7.1187C8.489 7.0227 8.4542 6.8307 8.2166 6.8403C8.0438 6.8403 7.847 7.0299 7.823 7.2099C7.7942 7.3539 7.7846 7.5099 7.823 7.6347C7.943 7.7787 8.0894 7.7643 8.2166 7.7307C8.321 7.6887 8.4086 7.5867 8.4446 7.6107C8.4686 7.6503 8.4422 7.9875 7.9526 8.2467C7.6502 8.3835 7.4102 8.4147 7.2806 8.1699C7.2014 8.0163 7.2878 7.4307 7.091 7.5651C6.5078 9.0675 8.4554 9.2763 8.6726 7.6275C8.687 7.5795 8.729 7.5339 8.7602 7.5459C8.7722 7.5519 8.7842 7.5699 8.789 7.6035C8.7434 9.0963 7.2818 9.1995 7.0346 8.7291C6.9722 8.6187 6.9542 8.3715 6.9482 8.2251C6.9362 8.1351 6.9146 8.0835 6.8882 8.0631C6.8282 8.0187 6.749 8.1351 6.7322 8.3355C6.7082 8.4975 6.7142 8.5419 6.7142 8.6979C6.7934 9.8775 8.6738 9.3699 8.9798 8.3979C9.131 7.8939 8.9762 7.5135 9.0278 7.4667L9.0314 7.4643H9.035L9.041 7.4619C9.2282 7.6635 9.4898 7.4859 9.5474 7.4175C9.5714 7.3815 9.6338 7.3575 9.677 7.4055C9.821 7.5087 10.0778 7.4595 10.1306 7.2735C10.1618 7.0935 10.1882 6.9087 10.1942 6.7155C10.0982 6.7455 10.0214 6.7671 9.9902 6.7995C9.983 6.8079 9.9782 6.8175 9.9758 6.8271L9.9518 6.9867C9.9518 6.9927 9.9494 6.9963 9.947 6.9987C9.9434 7.0071 9.935 7.0131 9.9302 7.0167C9.8966 7.0347 9.8378 7.0251 9.8342 6.9759C9.7898 6.7719 9.6038 6.7455 9.491 7.0635C9.4154 7.1235 9.275 7.1355 9.263 7.0443C9.281 6.8307 9.1946 6.8019 9.023 6.9027L8.8574 5.6547C8.9294 5.6511 8.9942 5.7027 9.0614 5.6211C8.9894 5.4003 8.8394 4.9515 8.7542 4.9083H8.7518L8.7398 4.8963C8.7398 4.8939 8.7362 4.8927 8.7338 4.8915L8.729 4.8843C8.7242 4.8843 8.7194 4.8819 8.717 4.8807C8.7086 4.8783 8.7014 4.8783 8.693 4.8783H8.6942ZM14.5046 4.8831C14.4302 4.8807 14.3486 4.9275 14.3798 5.0211C14.3606 5.0727 14.5394 5.2455 14.5682 5.3391C14.6198 5.4831 14.5286 5.6235 14.5826 5.6439C14.633 5.6655 14.7026 5.4939 14.7266 5.3343C14.7578 5.2047 14.6666 4.9407 14.5346 4.8867L14.5046 4.8843V4.8831ZM9.977 5.0403C10.0106 5.0379 10.0514 5.0691 10.073 5.1123C10.0934 5.1603 10.0826 5.2047 10.049 5.2131C10.013 5.2215 9.9674 5.1915 9.9458 5.1435C9.9242 5.0955 9.9338 5.0511 9.9698 5.0427H9.977V5.0403ZM18.3734 5.2587C18.305 5.2563 18.2294 5.3067 18.2606 5.4087C18.2438 5.4639 18.4046 5.6511 18.4322 5.7543C18.4562 5.8263 18.3962 6.0615 18.4442 6.0831C18.4898 6.1071 18.5522 5.9199 18.5762 5.7471C18.5906 5.6511 18.521 5.3211 18.4022 5.2623C18.3938 5.2599 18.3842 5.2575 18.3746 5.2575L18.3734 5.2587ZM13.7294 5.3739C13.7378 5.4015 13.7438 5.4291 13.7474 5.4579C13.7618 5.5179 13.7738 5.5779 13.7858 5.6403C13.733 5.5659 13.6898 5.5059 13.6694 5.4843C13.5494 5.3403 13.6718 5.3907 13.7294 5.3739ZM14.801 5.8995C14.7746 5.9043 14.7494 5.9271 14.741 5.9631C14.7338 5.9847 14.7506 6.0231 14.729 6.0351C14.717 6.0471 14.669 6.0399 14.6726 5.9751C14.6726 5.9535 14.657 5.9307 14.6486 5.9187C14.639 5.9127 14.633 5.9103 14.6162 5.9103C14.5958 5.9103 14.5958 5.9163 14.585 5.9343C14.5802 5.9511 14.573 5.9679 14.573 5.9883C14.573 6.0123 14.5634 6.0195 14.5466 6.0243C14.5274 6.0243 14.531 6.0243 14.5154 6.0159C14.5058 6.0039 14.495 6.0015 14.495 5.9847C14.495 5.9667 14.4914 5.9391 14.4854 5.9271C14.477 5.9151 14.465 5.9115 14.4494 5.9067C14.3714 5.9067 14.3654 5.9979 14.3702 6.0315C14.3654 6.0387 14.3618 6.2019 14.4698 6.2475C14.6162 6.3159 14.8898 6.2835 14.8778 6.0507C14.8778 6.0303 14.8718 5.9607 14.8706 5.9427C14.855 5.9067 14.8274 5.8947 14.8022 5.8983L14.801 5.8995ZM9.917 5.9475C9.9002 5.9475 9.8762 5.9523 9.8486 5.9691C9.7202 6.0387 9.671 6.2451 9.7526 6.3651C9.8246 6.4731 9.9446 6.4335 9.9602 6.4335C10.0862 6.4503 10.1606 6.1983 10.1606 6.1983C10.1606 6.1983 10.1642 6.1263 10.0166 6.2607C9.9518 6.2727 9.9446 6.2487 9.9278 6.2127C9.9134 6.1491 9.9158 6.0807 9.9458 6.0171C9.9602 5.9775 9.9458 5.9523 9.917 5.9499V5.9475ZM16.8206 5.9799C16.7486 5.9763 16.673 6.0231 16.6526 6.1203C16.6526 6.1779 16.679 6.2091 16.6742 6.2619C16.6682 6.2919 16.6382 6.3099 16.5638 6.2763C16.5758 6.2643 16.5158 6.1827 16.5158 6.1827C16.4594 6.1467 16.3838 6.1827 16.3334 6.2163C16.3058 6.2667 16.2854 6.3519 16.3166 6.4383C16.3982 6.5907 16.6802 6.8499 16.8146 6.8523C16.817 6.7155 16.8302 6.5331 16.8386 6.4203C16.841 6.3771 16.8506 6.3303 16.8926 6.3195C16.9334 6.3075 17.0042 6.3603 17.0042 6.3159C16.997 6.2295 16.9802 6.0999 16.9322 6.0399C16.9058 6.0039 16.8638 5.9823 16.8218 5.9799H16.8206ZM11.105 6.4563L11.1014 6.4599C11.1014 6.4599 11.099 6.4599 11.0978 6.4623C11.0834 6.4743 11.0666 6.4983 11.0294 6.5223C10.9658 6.5943 10.955 6.6459 10.9574 6.7899C10.9622 6.8055 11.0774 7.1295 11.177 7.3563C11.2442 7.5927 11.3054 7.8639 11.261 8.1195C11.105 8.4579 10.793 8.7615 10.4894 8.9271C10.3334 8.9751 10.2014 8.9583 10.1654 8.9247C10.0766 8.8647 10.0754 8.7567 10.0814 8.7399V8.7363C10.3358 8.5587 10.6274 8.4147 10.8554 7.9359C10.9226 7.7523 10.9442 7.6419 10.877 7.3599C10.8506 7.2519 10.817 7.1679 10.745 7.0911H10.7474C10.7906 7.0707 10.9034 7.1535 10.9214 7.1031C10.8938 6.9663 10.8014 6.7851 10.6994 6.6915C10.6082 6.6075 10.5074 6.5991 10.4258 6.6747C10.3322 6.7275 10.313 6.9147 10.3574 7.0779C10.4078 7.2003 10.5434 7.2219 10.6394 7.4703C10.6418 7.4871 10.6718 7.6563 10.6238 7.7259C10.583 7.8483 10.0778 8.2467 10.0418 8.2707L10.0382 8.2731L10.0358 8.2755H10.0334H10.031V8.2719C10.0286 8.2623 10.031 8.2359 10.031 8.1963C10.0274 8.1219 10.0586 7.9527 10.055 7.9227V7.9203C9.887 8.0283 9.8306 8.3583 9.8006 8.4567C9.377 8.7483 8.897 8.9655 8.6198 9.2607C8.4758 9.4887 9.6134 9.0039 9.7454 8.9451L9.749 8.9487C9.7754 8.9763 9.7766 9.0723 9.8522 9.1599C9.9722 9.3195 10.2218 9.4179 10.4666 9.3567C10.877 9.2091 11.1146 8.9295 11.3546 8.6187C11.3882 8.5707 11.4422 8.5299 11.4926 8.5683C11.657 8.9379 12.1346 9.2019 12.7502 9.2283C12.8942 9.0555 12.8258 8.9703 12.7682 8.9343C12.7502 8.9223 12.4622 8.8095 12.4166 8.6979C12.389 8.5947 12.4574 8.5023 12.5942 8.4339C12.9902 8.3859 13.379 8.3319 13.7558 8.2107C13.7594 8.0835 13.8338 7.8951 13.8842 7.8123C13.9202 7.7559 13.9406 7.7499 13.949 7.7427V7.7403H13.9514V7.7367V7.7247L13.8866 7.6863L12.623 7.6815C12.6074 7.6755 12.5966 7.6695 12.5894 7.6635L12.587 7.6599C12.587 7.6599 12.5846 7.6599 12.5846 7.6575C12.5846 7.6551 12.5822 7.6551 12.5822 7.6551V7.6563V7.6539V7.6515V7.6491L12.5846 7.6455C12.5906 7.6383 12.6062 7.6299 12.6242 7.6215C12.9266 7.5819 13.4618 7.4943 13.4978 6.9795C13.4918 6.7107 13.3826 6.5355 13.0538 6.4875C12.8114 6.5055 12.6386 6.7395 12.6662 6.9963C12.6542 7.0647 12.6902 7.2003 12.6182 7.2159C12.155 7.2591 11.6486 7.5495 11.6318 7.7583H11.6294H11.627H11.6246C11.6246 7.7607 11.6222 7.7607 11.621 7.7607H11.6162H11.6138H11.609C11.579 7.7511 11.5406 7.7007 11.5466 7.6323C11.5286 7.2723 11.411 6.8643 11.2286 6.5523C11.1626 6.4863 11.1326 6.4599 11.1158 6.4563H11.1122H11.1086H11.1062H11.105ZM12.3146 6.6459C12.2906 6.6507 12.263 6.6723 12.2546 6.7083C12.2486 6.7323 12.2666 6.7707 12.245 6.7827C12.233 6.7947 12.185 6.7875 12.1874 6.7227C12.1874 6.7023 12.1718 6.6795 12.1634 6.6663C12.1538 6.6603 12.1478 6.6591 12.1322 6.6591C12.1118 6.6591 12.1106 6.6639 12.0998 6.6807C12.0938 6.6975 12.0878 6.7167 12.0878 6.7347C12.0854 6.7587 12.0758 6.7659 12.0602 6.7683C12.041 6.7683 12.0458 6.7719 12.0302 6.7623C12.0206 6.7527 12.0086 6.7479 12.0086 6.7311C12.0086 6.7131 12.005 6.6831 12.0002 6.6711C11.9918 6.6627 11.9786 6.6591 11.9642 6.6543C11.8838 6.6543 11.8802 6.7443 11.8838 6.7791C11.8778 6.7851 11.8742 6.9471 11.9822 6.9927C12.1262 7.0623 12.4742 7.0215 12.3902 6.7971C12.3902 6.7767 12.3842 6.7071 12.383 6.6891C12.3674 6.6531 12.3398 6.6411 12.3134 6.6447L12.3146 6.6459ZM17.1926 6.8463H17.1806C17.1806 6.8463 16.5062 7.3263 16.4906 7.3431C16.4234 7.4031 16.457 7.6107 16.4906 7.5867C16.5386 7.6047 17.2166 7.1451 17.2034 7.0911C17.2334 7.0935 17.2478 6.8547 17.1914 6.8451L17.1926 6.8463ZM12.9518 6.9183C12.9782 6.9147 13.0142 6.9243 13.0478 6.9423C13.0994 6.9735 13.1318 7.0167 13.1258 7.0503V7.0551C13.1234 7.0551 13.1234 7.0551 13.1234 7.0575V7.0599C13.1234 7.0599 13.121 7.0599 13.121 7.0623C13.121 7.0647 13.1174 7.0671 13.115 7.0695C13.091 7.0935 13.0358 7.0887 12.983 7.0575C12.9326 7.0299 12.9026 6.9855 12.905 6.9543V6.9507L12.911 6.9387C12.911 6.9387 12.911 6.9363 12.9134 6.9351L12.9194 6.9279C12.9278 6.9219 12.9386 6.9159 12.9518 6.9159V6.9183ZM7.0502 7.0383C6.7022 7.0455 6.1898 7.4967 6.1766 7.7463L7.2806 7.2183C7.2206 7.1271 7.277 7.0455 7.0502 7.0383ZM8.1818 7.1943C8.2154 7.1967 8.2514 7.2135 8.2706 7.2615C8.2874 7.3059 8.2706 7.3515 8.2502 7.3743V7.3779C8.2334 7.3971 8.183 7.3899 8.1458 7.3899C8.1014 7.3875 8.0798 7.3803 8.0534 7.3443C8.039 7.3023 8.0774 7.2627 8.0954 7.2339L8.1038 7.2219C8.1158 7.2099 8.1398 7.2003 8.1638 7.1979L8.1794 7.1955L8.1818 7.1943ZM17.0618 7.3347C16.9982 7.3419 16.9394 7.4007 16.9658 7.4943C16.949 7.5495 17.0498 7.7427 17.0774 7.8447C17.1014 7.9167 17.0462 8.1243 17.0954 8.1447C17.141 8.1687 17.2598 8.0247 17.2562 7.8399C17.2682 7.7439 17.2226 7.3959 17.1038 7.3383C17.0894 7.3347 17.075 7.3335 17.0606 7.3347H17.0618ZM9.521 7.6755C9.4658 7.6791 9.4166 7.7079 9.4394 7.7859C9.4358 7.8411 9.5954 7.9095 9.6038 8.0379C9.6254 8.0931 9.5678 8.2659 9.6158 8.2803C9.659 8.2983 9.719 8.1603 9.7418 8.0355C9.7538 7.9659 9.6866 7.7235 9.5738 7.6791C9.5558 7.6743 9.5378 7.6731 9.5198 7.6743L9.521 7.6755ZM11.777 7.9827H11.7914C11.933 8.0211 12.1394 8.0259 12.3194 8.0427C12.467 8.0547 12.539 8.1675 12.4034 8.2167C12.2666 8.2623 12.1358 8.3007 12.1358 8.4951C12.1526 8.5911 12.1478 8.6415 12.1334 8.6631C12.1334 8.6667 12.1298 8.6691 12.1286 8.6703C12.1286 8.6703 12.1286 8.6727 12.1262 8.6727V8.6751H12.1226L12.1142 8.6787H12.1082C12.0758 8.6847 12.029 8.6547 11.9942 8.6355C11.9102 8.5755 11.6762 8.4315 11.6426 8.1195C11.6378 8.0475 11.6906 7.9875 11.7746 7.9815L11.777 7.9827ZM6.2642 8.2227C6.2558 8.2227 6.2402 8.2491 6.2162 8.2791C6.0074 8.6091 5.9882 9.1023 6.1034 9.2511C6.1634 9.3195 6.2642 9.3507 6.3386 9.3291C6.4706 9.2727 6.527 9.0075 6.4946 8.9115C6.4526 8.8431 6.4178 8.8323 6.3746 8.8899C6.2822 9.0759 6.2426 8.9475 6.2366 8.8419C6.2222 8.6463 6.2414 8.4639 6.263 8.3199C6.275 8.2479 6.275 8.2203 6.263 8.2203L6.2642 8.2227ZM13.3406 8.6571C13.325 8.6571 13.3094 8.6595 13.2926 8.6691C13.289 8.6691 13.1438 8.7651 13.097 8.8347C13.0682 8.8563 13.073 8.8743 13.0802 8.9127C13.1018 8.9643 13.1402 8.9487 13.1858 8.9247C13.2458 8.9151 13.2734 8.9547 13.2698 9.0255C13.2422 9.1155 13.2818 9.1479 13.2818 9.1539C13.2818 9.1587 13.3382 9.2079 13.4054 9.1695C13.5458 9.1155 13.6334 9.0615 13.8314 9.0195C13.883 9.0195 13.8794 8.8803 13.7978 8.8755C13.6898 8.8803 13.5938 8.8875 13.4858 8.9715C13.4198 8.9859 13.409 8.9451 13.3934 8.9091C13.3766 8.8203 13.4318 8.7579 13.4198 8.6907C13.4222 8.6943 13.3862 8.6619 13.3394 8.6595L13.3406 8.6571ZM17.8718 8.8251L17.7758 8.8347C17.7326 8.8431 17.7182 8.8623 17.7098 8.9151C17.7134 8.9931 17.7614 8.9895 17.8118 9.0207C17.8406 9.0567 17.8598 9.0903 17.8094 9.1527C17.7614 9.1947 17.729 9.2187 17.681 9.2607C17.6606 9.2991 17.645 9.3567 17.7146 9.3759C17.8406 9.4119 18.1322 9.2223 18.1322 9.2199C18.1802 9.1839 18.1634 9.1155 18.1598 9.1155C18.131 9.0843 18.0686 9.1035 18.0278 9.0975C18.0074 9.0975 17.9438 9.0879 17.9726 9.0303C17.999 8.9943 18.0086 8.9739 18.0266 8.9295C18.0446 8.8863 18.0266 8.8575 17.957 8.8335C17.921 8.8263 17.897 8.8239 17.8694 8.8251H17.8718ZM16.1282 13.4571C16.4522 13.4727 16.7546 13.4607 17.0762 13.4763C17.129 13.5195 17.1038 13.6203 17.0702 13.6371L17.0642 13.6395H17.0606H17.0558L16.7846 13.6323V13.6167C16.7582 13.5423 16.5782 13.5471 16.535 13.6047V13.6083C16.5326 13.6083 16.5314 13.6119 16.5314 13.6131L16.529 13.6191V13.6335C16.385 13.6515 16.259 13.6287 16.1174 13.6239C16.0754 13.5723 16.0814 13.4799 16.1294 13.4559L16.1282 13.4571Z" fill="white"/>
</svg>
