<svg width="24" height="25" viewBox="0 0 24 25" fill="none" xmlns="http://www.w3.org/2000/svg">
<path opacity="0.34" d="M12 15.0337C13.6569 15.0337 15 13.6905 15 12.0337C15 10.3768 13.6569 9.03369 12 9.03369C10.3431 9.03369 9 10.3768 9 12.0337C9 13.6905 10.3431 15.0337 12 15.0337Z" stroke="#86909B" stroke-width="1.5" stroke-miterlimit="10" stroke-linecap="round" stroke-linejoin="round"/>
<path d="M2 12.9136V11.1536C2 10.1136 2.85 9.25363 3.9 9.25363C5.71 9.25363 6.45 7.97363 5.54 6.40363C5.02 5.50363 5.33 4.33363 6.24 3.81363L7.97 2.82363C8.76 2.35363 9.78 2.63363 10.25 3.42363L10.36 3.61363C11.26 5.18363 12.74 5.18363 13.65 3.61363L13.76 3.42363C14.23 2.63363 15.25 2.35363 16.04 2.82363L17.77 3.81363C18.68 4.33363 18.99 5.50363 18.47 6.40363C17.56 7.97363 18.3 9.25363 20.11 9.25363C21.15 9.25363 22.01 10.1036 22.01 11.1536V12.9136C22.01 13.9536 21.16 14.8136 20.11 14.8136C18.3 14.8136 17.56 16.0936 18.47 17.6636C18.99 18.5736 18.68 19.7336 17.77 20.2536L16.04 21.2436C15.25 21.7136 14.23 21.4336 13.76 20.6436L13.65 20.4536C12.75 18.8836 11.27 18.8836 10.36 20.4536L10.25 20.6436C9.78 21.4336 8.76 21.7136 7.97 21.2436L6.24 20.2536C5.33 19.7336 5.02 18.5636 5.54 17.6636C6.45 16.0936 5.71 14.8136 3.9 14.8136C2.85 14.8136 2 13.9536 2 12.9136Z" stroke="#86909B" stroke-width="1.5" stroke-miterlimit="10" stroke-linecap="round" stroke-linejoin="round"/>
</svg>
