<svg width="24" height="25" viewBox="0 0 24 25" fill="none" xmlns="http://www.w3.org/2000/svg">
<path d="M2.07006 4.63357C2.87006 1.17357 8.08006 1.17357 8.87006 4.63357C9.34006 6.66357 8.05006 8.38357 6.93006 9.45357C6.11006 10.2336 4.82006 10.2236 4.00006 9.45357C2.89006 8.38357 1.60006 6.66357 2.07006 4.63357Z" stroke="#86909B" stroke-width="1.5"/>
<path d="M15.07 16.6336C15.87 13.1736 21.11 13.1736 21.91 16.6336C22.38 18.6636 21.09 20.3836 19.96 21.4536C19.14 22.2336 17.84 22.2236 17.02 21.4536C15.89 20.3836 14.6 18.6636 15.07 16.6336Z" stroke="#86909B" stroke-width="1.5"/>
<path opacity="0.4" d="M11.9997 5.03369H14.6797C16.5297 5.03369 17.3897 7.32369 15.9997 8.54369L8.0097 15.5337C6.6197 16.7437 7.4797 19.0337 9.3197 19.0337H11.9997" stroke="#86909B" stroke-width="1.5" stroke-linecap="round" stroke-linejoin="round"/>
<path d="M5.48573 5.53369H5.49728" stroke="#86909B" stroke-width="2" stroke-linecap="round" stroke-linejoin="round"/>
<path d="M18.4857 17.5337H18.4973" stroke="#86909B" stroke-width="2" stroke-linecap="round" stroke-linejoin="round"/>
</svg>
