<svg width="16" height="16" viewBox="0 0 16 16" fill="none" xmlns="http://www.w3.org/2000/svg">
<path d="M7.33353 7.99996C7.33384 8.15573 7.27959 8.30669 7.1802 8.42663L3.84687 12.4266C3.61122 12.7101 3.19037 12.7489 2.90687 12.5133C2.62336 12.2777 2.58456 11.8568 2.8202 11.5733L5.80687 7.99996L2.92687 4.42663C2.81502 4.2889 2.76269 4.11227 2.78145 3.93584C2.80022 3.75941 2.88855 3.59775 3.02687 3.48663C3.16544 3.36321 3.34918 3.30313 3.5339 3.32084C3.71863 3.33855 3.88761 3.43246 4.0002 3.57996L7.2202 7.57996C7.30388 7.70335 7.34378 7.85123 7.33353 7.99996Z" fill="#29E5AB"/>
<path d="M13.3335 7.99996C13.3338 8.15573 13.2796 8.30669 13.1802 8.42663L9.84687 12.4266C9.61122 12.7101 9.19037 12.7489 8.90687 12.5133C8.62336 12.2777 8.58456 11.8568 8.8202 11.5733L11.8069 7.99996L8.92687 4.42663C8.81502 4.2889 8.76269 4.11227 8.78145 3.93584C8.80022 3.75941 8.88855 3.59775 9.02687 3.48663C9.16544 3.36321 9.34918 3.30313 9.5339 3.32084C9.71863 3.33855 9.88761 3.43246 10.0002 3.57996L13.2202 7.57996C13.3039 7.70335 13.3438 7.85123 13.3335 7.99996Z" fill="#29E5AB"/>
</svg>
