<svg width="24" height="25" viewBox="0 0 24 25" fill="none" xmlns="http://www.w3.org/2000/svg">
<path opacity="0.4" d="M17.9981 7.1937C17.9381 7.1837 17.8681 7.1837 17.8081 7.1937C16.4281 7.1437 15.3281 6.01369 15.3281 4.61369C15.3281 3.18369 16.4781 2.03369 17.9081 2.03369C19.3381 2.03369 20.4881 3.19369 20.4881 4.61369C20.4781 6.01369 19.3781 7.1437 17.9981 7.1937Z" stroke="#86909B" stroke-width="1.5" stroke-linecap="round" stroke-linejoin="round"/>
<path opacity="0.4" d="M16.9675 14.4739C18.3375 14.7039 19.8475 14.4639 20.9075 13.7539C22.3175 12.8139 22.3175 11.2739 20.9075 10.3339C19.8375 9.62385 18.3075 9.38385 16.9375 9.62385" stroke="#86909B" stroke-width="1.5" stroke-linecap="round" stroke-linejoin="round"/>
<path opacity="0.4" d="M5.96656 7.1937C6.02656 7.1837 6.09656 7.1837 6.15656 7.1937C7.53656 7.1437 8.63656 6.01369 8.63656 4.61369C8.63656 3.18369 7.48656 2.03369 6.05656 2.03369C4.62656 2.03369 3.47656 3.19369 3.47656 4.61369C3.48656 6.01369 4.58656 7.1437 5.96656 7.1937Z" stroke="#86909B" stroke-width="1.5" stroke-linecap="round" stroke-linejoin="round"/>
<path opacity="0.4" d="M6.9975 14.4739C5.6275 14.7039 4.1175 14.4639 3.0575 13.7539C1.6475 12.8139 1.6475 11.2739 3.0575 10.3339C4.1275 9.62385 5.6575 9.38385 7.0275 9.62385" stroke="#86909B" stroke-width="1.5" stroke-linecap="round" stroke-linejoin="round"/>
<path d="M12.0001 14.6639C11.9401 14.6539 11.8701 14.6539 11.8101 14.6639C10.4301 14.6139 9.33008 13.4839 9.33008 12.0839C9.33008 10.6539 10.4801 9.50391 11.9101 9.50391C13.3401 9.50391 14.4901 10.6639 14.4901 12.0839C14.4801 13.4839 13.3801 14.6239 12.0001 14.6639Z" stroke="#86909B" stroke-width="1.5" stroke-linecap="round" stroke-linejoin="round"/>
<path d="M9.0907 17.814C7.6807 18.754 7.6807 20.294 9.0907 21.234C10.6907 22.304 13.3107 22.304 14.9107 21.234C16.3207 20.294 16.3207 18.754 14.9107 17.814C13.3207 16.754 10.6907 16.754 9.0907 17.814Z" stroke="#86909B" stroke-width="1.5" stroke-linecap="round" stroke-linejoin="round"/>
</svg>
